<?xml version="1.0" encoding="UTF-8" standalone="no"?>
<!DOCTYPE svg PUBLIC "-//W3C//DTD SVG 1.1//EN"
 "http://www.w3.org/Graphics/SVG/1.1/DTD/svg11.dtd">
<!-- Generated by graphviz version 2.44.0 (20200408.0750)
 -->
<!-- Title: Test T Pages: 1 -->
<svg width="98pt" height="211pt"
 viewBox="0.00 0.00 98.00 211.00" xmlns="http://www.w3.org/2000/svg" xmlns:xlink="http://www.w3.org/1999/xlink">
<g id="graph0" class="graph" transform="scale(1 1) rotate(0) translate(4 207)">
<title>Test T</title>
<polygon fill="white" stroke="transparent" points="-4,4 -4,-207 94,-207 94,4 -4,4"/>
<text text-anchor="middle" x="45" y="-7.8" font-family="Times,serif" font-size="14.00">Test T</text>
<!-- 1 -->
<g id="node1" class="node">
<title>1</title>
<ellipse fill="lightgrey" stroke="black" cx="45" cy="-185" rx="18" ry="18"/>
<text text-anchor="middle" x="45" y="-181.3" font-family="Times,serif" font-size="14.00">1</text>
</g>
<!-- 2 -->
<g id="node2" class="node">
<title>2</title>
<ellipse fill="lightgrey" stroke="black" cx="18" cy="-113" rx="18" ry="18"/>
<text text-anchor="middle" x="18" y="-109.3" font-family="Times,serif" font-size="14.00">2</text>
</g>
<!-- 1&#45;&#45;2 -->
<g id="edge1" class="edge">
<title>1&#45;&#45;2</title>
<path fill="none" stroke="black" d="M38.74,-167.76C35.5,-159.37 31.47,-148.93 27.83,-139.5"/>
<polygon fill="black" stroke="black" points="31.09,-138.22 24.23,-130.15 24.56,-140.74 31.09,-138.22"/>
</g>
<!-- 4 -->
<g id="node4" class="node">
<title>4</title>
<ellipse fill="lightgrey" stroke="black" cx="72" cy="-113" rx="18" ry="18"/>
<text text-anchor="middle" x="72" y="-109.3" font-family="Times,serif" font-size="14.00">4</text>
</g>
<!-- 1&#45;&#45;4 -->
<g id="edge3" class="edge">
<title>1&#45;&#45;4</title>
<path fill="none" stroke="black" d="M51.26,-167.76C54.5,-159.37 58.53,-148.93 62.17,-139.5"/>
<polygon fill="black" stroke="black" points="65.44,-140.74 65.77,-130.15 58.91,-138.22 65.44,-140.74"/>
</g>
<!-- 3 -->
<g id="node3" class="node">
<title>3</title>
<ellipse fill="lightgrey" stroke="black" cx="18" cy="-41" rx="18" ry="18"/>
<text text-anchor="middle" x="18" y="-37.3" font-family="Times,serif" font-size="14.00">3</text>
</g>
<!-- 2&#45;&#45;3 -->
<g id="edge2" class="edge">
<title>2&#45;&#45;3</title>
<path fill="none" stroke="black" d="M18,-94.7C18,-86.98 18,-77.71 18,-69.11"/>
<polygon fill="black" stroke="black" points="21.5,-69.1 18,-59.1 14.5,-69.1 21.5,-69.1"/>
</g>
</g>
</svg>
